<?xml version="1.0" encoding="utf-8"?>
<!-- Uploaded to: SVG Repo, www.svgrepo.com, Generator: SVG Repo Mixer Tools -->
<svg fill="#000000" width="800px" height="800px" viewBox="-5 0 32 32" version="1.1" xmlns="http://www.w3.org/2000/svg">
<title>university</title>
<path d="M0.84 12.96h20.52c0.48 0 0.84-0.36 0.84-0.84 0-0.36-0.2-0.64-0.52-0.76l-10.2-5.2c-0.24-0.12-0.52-0.12-0.76 0l-10.24 5.2c-0.36 0.16-0.52 0.56-0.44 0.96 0.12 0.36 0.4 0.64 0.8 0.64zM11.12 7.88l6.72 3.4h-13.44l6.72-3.4zM21.36 24.24h-1.64v-9.36c0-0.48-0.36-0.84-0.84-0.84s-0.84 0.36-0.84 0.84v9.36h-3.52v-9.36c0-0.48-0.36-0.84-0.84-0.84-0.44 0-0.84 0.36-0.84 0.84v9.36h-3.52v-9.36c0-0.48-0.36-0.84-0.84-0.84s-0.84 0.36-0.84 0.84v9.36h-3.48v-9.36c0-0.48-0.36-0.84-0.84-0.84s-0.8 0.36-0.8 0.84v9.36h-1.64c-0.48 0-0.84 0.36-0.84 0.84s0.36 0.84 0.84 0.84h20.52c0.48 0 0.84-0.36 0.84-0.84s-0.4-0.84-0.88-0.84z"></path>
</svg>