<?xml version="1.0" encoding="UTF-8" standalone="no"?>
<svg
   width="200"
   height="200"
   viewBox="0 0 200 200"
   fill="none"
   version="1.1"
   id="svg2"
   sodipodi:docname="docker.svg"
   inkscape:version="1.3.2 (091e20ef0f, 2023-11-25)"
   xmlns:inkscape="http://www.inkscape.org/namespaces/inkscape"
   xmlns:sodipodi="http://sodipodi.sourceforge.net/DTD/sodipodi-0.dtd"
   xmlns="http://www.w3.org/2000/svg"
   xmlns:svg="http://www.w3.org/2000/svg">
  <defs
     id="defs2" />
  <sodipodi:namedview
     id="namedview2"
     pagecolor="#ffffff"
     bordercolor="#000000"
     borderopacity="0.25"
     inkscape:showpageshadow="2"
     inkscape:pageopacity="0.0"
     inkscape:pagecheckerboard="0"
     inkscape:deskcolor="#d1d1d1"
     inkscape:zoom="1.8295455"
     inkscape:cx="215.62733"
     inkscape:cy="142.38509"
     inkscape:window-width="1890"
     inkscape:window-height="971"
     inkscape:window-x="26"
     inkscape:window-y="23"
     inkscape:window-maximized="0"
     inkscape:current-layer="svg2" />
  <path
     d="m 167.73189,90.195 c -3.433,-2.301 -12.452,-3.283 -19.008,-1.524 -0.352,-6.501 -3.723,-11.98 -9.883,-16.761 l -2.28,-1.523 -1.52,2.286 c -2.987,4.513 -4.247,10.529 -3.801,15.998 0.352,3.37 1.528,7.155995 3.801,9.904005 -8.533,4.928005 -16.401,3.809005 -51.240002,3.809005 h -53.789 c -0.156,7.83199 1.108,22.894 10.73,35.15599 1.064,1.355 2.228,2.665 3.494,3.927 7.824,7.799 19.645,13.518 37.321,13.533 26.967002,0.025 50.070002,-14.486 64.125002,-49.567 4.624,0.074 16.833,0.825 22.808,-10.667 0.146,-0.193 1.52,-3.046 1.52,-3.046 l -2.278,-1.523 z M 65.115888,83.034 h -15.126 v 15.056005 h 15.126 z m 19.538,0 h -15.125 v 15.056005 h 15.125 z m 19.541002,0 H 89.069888 v 15.056005 h 15.125002 z m 19.542,0 h -15.126 v 15.056005 h 15.126 z m -78.163002,0 h -15.125 v 15.056005 h 15.125 z m 19.542,-19.016 h -15.126 v 15.056 h 15.126 z m 19.538,0 h -15.125 v 15.056 h 15.125 z m 19.541002,0 H 89.069888 v 15.056 h 15.125002 z m 0,-19.018 H 89.069888 v 15.056 h 15.125002 z"
     fill="#1d63ed"
     id="path2" />
</svg>
