<?xml version="1.0" encoding="UTF-8" standalone="no"?>
<svg
   viewBox="0 0 24 24"
   width="24"
   height="24"
   version="1.1"
   id="svg3"
   sodipodi:docname="git.svg"
   inkscape:version="1.3.2 (091e20ef0f, 2023-11-25)"
   xmlns:inkscape="http://www.inkscape.org/namespaces/inkscape"
   xmlns:sodipodi="http://sodipodi.sourceforge.net/DTD/sodipodi-0.dtd"
   xmlns="http://www.w3.org/2000/svg"
   xmlns:svg="http://www.w3.org/2000/svg">
  <defs
     id="defs3" />
  <sodipodi:namedview
     id="namedview3"
     pagecolor="#ffffff"
     bordercolor="#000000"
     borderopacity="0.25"
     inkscape:showpageshadow="2"
     inkscape:pageopacity="0.0"
     inkscape:pagecheckerboard="0"
     inkscape:deskcolor="#d1d1d1"
     inkscape:zoom="33.541667"
     inkscape:cx="12"
     inkscape:cy="12"
     inkscape:window-width="1890"
     inkscape:window-height="971"
     inkscape:window-x="26"
     inkscape:window-y="23"
     inkscape:window-maximized="0"
     inkscape:current-layer="svg3" />
  <path
     id="path1"
     d="M 5.75 1.5 A 3.25 3.25 0 0 0 2.5 4.75 A 3.25 3.25 0 0 0 5.015625 7.9023438 A 0.75 0.75 0 0 0 5 8 L 5 16 A 0.75 0.75 0 0 0 5.015625 16.097656 A 3.25 3.25 0 0 0 2.5 19.25 A 3.25 3.25 0 0 0 9 19.25 A 3.25 3.25 0 0 0 6.484375 16.097656 A 0.75 0.75 0 0 0 6.5 16 L 6.5 14.25 A 1.75 1.75 0 0 1 8.25 12.5 L 15.25 12.5 A 3.75 3.75 0 0 0 19 8.75 L 19 7.9003906 A 3.25 3.25 0 0 0 21.5 4.75 A 3.25 3.25 0 0 0 15 4.75 A 3.25 3.25 0 0 0 17.5 7.9003906 L 17.5 8.75 A 2.25 2.25 0 0 1 15.25 11 L 8.25 11 A 3.25 3.25 0 0 0 6.5 11.523438 L 6.5 8 A 0.75 0.75 0 0 0 6.484375 7.9023438 A 3.25 3.25 0 0 0 9 4.75 A 3.25 3.25 0 0 0 5.75 1.5 z M 5.7480469 2.9980469 A 1.7509768 1.7509768 0 0 1 5.75 6.5 A 1.7509768 1.7509768 0 0 1 5.7480469 2.9980469 z M 18.248047 2.9980469 A 1.7509768 1.7509768 0 0 1 18.25 6.5 A 1.7509768 1.7509768 0 0 1 18.248047 2.9980469 z M 5.7480469 17.498047 A 1.7509768 1.7509768 0 0 1 5.75 21 A 1.7509768 1.7509768 0 0 1 5.7480469 17.498047 z " />
</svg>
