<?xml version="1.0" encoding="UTF-8" standalone="no"?>
<!-- Uploaded to: SVG Repo, www.svgrepo.com, Generator: SVG Repo Mixer Tools -->

<svg
   aria-label="Arch Linux"
   role="img"
   viewBox="0 0 512 512"
   version="1.1"
   id="svg1"
   sodipodi:docname="arch-linux-svgrepo-com.svg"
   inkscape:version="1.3.2 (091e20ef0f, 2023-11-25)"
   xmlns:inkscape="http://www.inkscape.org/namespaces/inkscape"
   xmlns:sodipodi="http://sodipodi.sourceforge.net/DTD/sodipodi-0.dtd"
   xmlns="http://www.w3.org/2000/svg"
   xmlns:svg="http://www.w3.org/2000/svg">
  <defs
     id="defs1" />
  <sodipodi:namedview
     id="namedview1"
     pagecolor="#ffffff"
     bordercolor="#000000"
     borderopacity="0.25"
     inkscape:showpageshadow="2"
     inkscape:pageopacity="0.0"
     inkscape:pagecheckerboard="0"
     inkscape:deskcolor="#d1d1d1"
     inkscape:zoom="1.5722656"
     inkscape:cx="256"
     inkscape:cy="164.41242"
     inkscape:window-width="1890"
     inkscape:window-height="971"
     inkscape:window-x="26"
     inkscape:window-y="23"
     inkscape:window-maximized="0"
     inkscape:current-layer="svg1" />
  <path
     d="M256 72c-14 35-23 57-39 91 10 11 22 23 41 36-21-8-35-17-45-26-21 43-53 103-117 220 50-30 90-48 127-55-2-7-3-14-3-22v-1c1-33 18-58 38-56 20 1 36 29 35 62l-2 17c36 7 75 26 125 54l-27-50c-13-10-27-23-55-38 19 5 33 11 44 17-86-159-93-180-122-250z"
     fill="#1793d1"
     id="path1" />
</svg>
