<?xml version="1.0" encoding="UTF-8" standalone="no"?>
<!-- Uploaded to: SVG Repo, www.svgrepo.com, Generator: SVG Repo Mixer Tools -->

<svg
   width="800px"
   height="800px"
   viewBox="0 0 32 32"
   version="1.1"
   id="svg1"
   sodipodi:docname="clock.svg"
   inkscape:version="1.3.2 (091e20ef0f, 2023-11-25)"
   xmlns:inkscape="http://www.inkscape.org/namespaces/inkscape"
   xmlns:sodipodi="http://sodipodi.sourceforge.net/DTD/sodipodi-0.dtd"
   xmlns="http://www.w3.org/2000/svg"
   xmlns:svg="http://www.w3.org/2000/svg"
   xmlns:sketch="http://www.bohemiancoding.com/sketch/ns">
  <sodipodi:namedview
     id="namedview1"
     pagecolor="#ffffff"
     bordercolor="#000000"
     borderopacity="0.25"
     inkscape:showpageshadow="2"
     inkscape:pageopacity="0.0"
     inkscape:pagecheckerboard="0"
     inkscape:deskcolor="#d1d1d1"
     inkscape:zoom="1.00625"
     inkscape:cx="400"
     inkscape:cy="400"
     inkscape:window-width="1890"
     inkscape:window-height="971"
     inkscape:window-x="26"
     inkscape:window-y="23"
     inkscape:window-maximized="0"
     inkscape:current-layer="svg1" />
  <title
     id="title1">clock</title>
  <desc
     id="desc1">Created with Sketch Beta.</desc>
  <defs
     id="defs1" />
  <g
     id="Page-1"
     stroke="none"
     stroke-width="1"
     fill="none"
     fill-rule="evenodd"
     sketch:type="MSPage"
     transform="translate(0.08)"
     inkscape:label="Page-1">
    <g
       id="Icon-Set"
       sketch:type="MSLayerGroup"
       transform="translate(-412,-359)"
       fill="#000000">
      <path
         d="m 428,389 c -7.732,0 -14,-6.268 -14,-14 0,-7.731 6.268,-14 14,-14 7.732,0 14,6.269 14,14 0,7.732 -6.268,14 -14,14 z m 0,-30 c -8.837,0 -16,7.164 -16,16 0,8.837 7.163,16 16,16 8.837,0 16,-7.163 16,-16 0,-8.836 -7.163,-16 -16,-16 z m 0,4 c -0.552,0 -1,0.447 -1,1 v 10.023 h -8 c -0.553,0 -1,0.449 -1,1.001 0,0.552 0.447,0.999 1,0.999 h 9 c 0.553,0 1,-0.447 1,-0.999 V 364 c 0,-0.553 -0.447,-1 -1,-1 z"
         id="clock"
         sketch:type="MSShapeGroup"
         inkscape:label="clock"
         sodipodi:nodetypes="sssssssssssscsssssss" />
    </g>
  </g>
</svg>
