<?xml version="1.0" encoding="UTF-8" standalone="no"?>
<svg
   version="1.1"
   id="Layer_1"
   x="0px"
   y="0px"
   viewBox="0 0 886 336"
   style="enable-background:new 0 0 886 336;"
   xml:space="preserve"
   data-inject-url="https://cdn.shopify.com/s/files/1/0014/1962/t/53/assets/logo-dead-cells.svg?v=4570725287201213094"
   class="injectable"
   sodipodi:docname="dead_cells.svg"
   inkscape:version="1.3.2 (091e20ef0f, 2023-11-25)"
   xmlns:inkscape="http://www.inkscape.org/namespaces/inkscape"
   xmlns:sodipodi="http://sodipodi.sourceforge.net/DTD/sodipodi-0.dtd"
   xmlns="http://www.w3.org/2000/svg"
   xmlns:svg="http://www.w3.org/2000/svg"><defs
   id="defs11" /><sodipodi:namedview
   id="namedview11"
   pagecolor="#ffffff"
   bordercolor="#000000"
   borderopacity="0.25"
   inkscape:showpageshadow="2"
   inkscape:pageopacity="0.0"
   inkscape:pagecheckerboard="0"
   inkscape:deskcolor="#d1d1d1"
   inkscape:zoom="1.5316027"
   inkscape:cx="443"
   inkscape:cy="168.12454"
   inkscape:window-width="1890"
   inkscape:window-height="971"
   inkscape:window-x="26"
   inkscape:window-y="23"
   inkscape:window-maximized="0"
   inkscape:current-layer="Layer_1" />

<g
   id="g11">
	
	
	
	
	
	
	<path
   class="st0"
   d="M437.1,87.8c-3.2,3.6-6.6,7.1-9.6,10.9c-3.6,4.6-6.3,9.8-6.9,15.6c-1.1,10.7,1.8,20.3,9.8,27.8   c5,4.7,13.5,4.8,19,0.7c0.2-0.1,0.4-0.3,0.7-0.5c0.2,1.4,0.3,2.6,0.6,3.8c0.9,4.7,3.2,8.5,7,11.4c4.9,3.7,9.8,7.3,14.7,11   c11.8,8.7,17.9,20.6,18.8,35.2c0.5,8.2-0.5,16.2-4.5,23.6c-5.9,11.2-15.3,17.4-27.8,18.6c-14.8,1.4-26.5-4.2-35.7-15.9   c-7.2-9.3-8.6-19.8-7.7-30.9c2.2-0.3,4.2-0.4,6.2-0.9c5.2-1.3,8.3-5.2,8.6-10.5c0.7-9.5-2.8-17.3-9.1-24.2   c-4.9-5.4-11.4-7.6-18.1-9.4c-2.2-0.6-4.5-1-6.8-1.3c-1.3-0.2-1.9-0.8-2.2-2.1c-2.8-11.8-2-23.3,3-34.4c7.1-15.9,19.6-25,36.6-28   C435,88,436.2,87.9,437.1,87.8z M455.2,235c0.1,0,0.2,0,0.2,0c0-0.6,0.1-1.1,0.1-1.7c0.6-6.1,1.5-12.2,3.1-18.2   c1.3-5.1,4.4-8.1,9.5-9.4c1-0.2,1.9-0.5,2.9-0.7c2.7-0.5,5.4-0.9,7.6-1.3c-3.6-0.9-7.6-1.8-11.5-3c-3.9-1.2-6.4-3.8-7.1-7.8   c-1.1-5.7-2.2-11.5-3.2-17.3c-0.3-1.9-0.5-3.8-0.7-5.7c-0.7,3.9-1,7.8-1.6,11.7c-0.8,4.3-1.8,8.6-2.8,12.8c-0.4,1.9-1.6,3.3-3.4,4   c-2.6,1-5.1,2.1-7.8,2.9c-2.6,0.7-5.3,1-8.3,1.6c0.9,0.2,1.6,0.3,2.2,0.5c4.1,1.2,8.2,2.3,12.3,3.6c2.6,0.8,4.3,2.7,4.9,5.5   c0.8,3.5,1.6,7,2.1,10.6C454.4,227.1,454.7,231,455.2,235z"
   id="path7" />
	
	
	
	<path
   class="st0"
   d="M469.4,129.2c0.1,1.9,0.2,3.8,0.4,5.7c0.7,5.9,3.4,9.1,9.1,10.6c2.4,0.6,4.6,1.5,6.3,3.2   c2.5,2.4,3.7,5.3,2.9,8.8c-0.8,3.2-2.7,5.4-5.9,6.3c-3.3,0.9-6.4,0.2-9.1-1.7c-6.7-4.6-9.8-10.9-9-19.1c0.4-3.8,1-7.6,2.9-11   c0.6-1.1,1.4-2.1,2.1-3.1C469.2,129.1,469.3,129.2,469.4,129.2z"
   id="path11" />
</g>
</svg>
