<?xml version="1.0" encoding="utf-8"?>
<!-- Uploaded to: SVG Repo, www.svgrepo.com, Generator: SVG Repo Mixer Tools -->
<svg width="800px" height="800px" viewBox="0 0 1024 1024" class="icon"  version="1.1" xmlns="http://www.w3.org/2000/svg"><path d="M 716.373 954.88 c 8 1.38667 14.08 8.42667 14.08 16.7467 c 0 9.38663 -7.68 17.0667 -17.0667 17.0667 H 312.64 c -9.38663 0 -17.0667 -7.68 -17.0667 -17.0667 c 0 -8.74667 6.72 -16.1067 15.36 -16.96 l 168.853 -25.6 V 646.187 C 357.547 629.44 271.573 522.667 250.773 443.947 c -18.1333 -68.6933 67.52 -409.92 67.52 -409.92 l 194.133 0.426667 l 194.133 -0.426667 s 85.6533 341.227 67.52 409.92 c -20.6933 78.2933 -105.6 184.107 -226.773 201.92 v 282.453 l 169.067 26.56 Z" fill="#e8eff9" /><path d="M 308.16 311.787 c -9.06667 53.3333 -14.4 100.907 -9.06667 120.747 c 18.6667 70.4 100.267 168.107 213.333 168.213 c 112.96 -0.106667 194.667 -97.8131 213.333 -168.213 c 5.22667 -19.84 0 -67.4133 -9.06667 -120.747 h -408.533 Z" fill="#d1525c" /><path d="M 519.68 520.853 m -34.56 0 a 34.56 34.56 0 1 0 69.12 0 a 34.56 34.56 0 1 0 -69.12 0 Z" fill="#dd97a7" /><path d="M 430.507 423.68 m -27.7333 0 a 27.7333 27.7333 0 1 0 55.4667 0 a 27.7333 27.7333 0 1 0 -55.4667 0 Z" fill="#dd97a7" /><path d="M 554.24 379.52 m -26.1333 0 a 26.1333 26.1333 0 1 0 52.2667 0 a 26.1333 26.1333 0 1 0 -52.2667 0 Z" fill="#dd97a7" /><path d="M 720.96 339.2 c -1.28 -8.85333 -2.77333 -18.0267 -4.37333 -27.4133 H 308.16 c -1.6 9.38663 -3.09333 18.4533 -4.37333 27.4133 h 417.173 Z" fill="#e56575" /></svg>